<mxfile host="app.diagrams.net" modified="2024-05-16T05:57:43.253Z" agent="Mozilla/5.0 (Windows NT 10.0; Win64; x64) AppleWebKit/537.36 (KHTML, like Gecko) Chrome/124.0.0.0 Safari/537.36" etag="hA_qfvt4fv6KnPZHRL22" version="24.4.0" type="device">
  <diagram name="Page-1" id="jN3dJtcv4myi3JMUfJyL">
    <mxGraphModel dx="1900" dy="1683" grid="1" gridSize="10" guides="1" tooltips="1" connect="1" arrows="1" fold="1" page="1" pageScale="1" pageWidth="850" pageHeight="1100" math="0" shadow="0">
      <root>
        <mxCell id="0" />
        <mxCell id="1" parent="0" />
        <mxCell id="HJIHwBdhUKe4kwMfqvgZ-1" value="AWS Account" style="points=[[0,0],[0.25,0],[0.5,0],[0.75,0],[1,0],[1,0.25],[1,0.5],[1,0.75],[1,1],[0.75,1],[0.5,1],[0.25,1],[0,1],[0,0.75],[0,0.5],[0,0.25]];outlineConnect=0;html=1;whiteSpace=wrap;fontSize=12;fontStyle=0;container=1;pointerEvents=0;collapsible=0;recursiveResize=0;shape=mxgraph.aws4.group;grIcon=mxgraph.aws4.group_account;verticalAlign=top;align=left;spacingLeft=30;dashed=0;" vertex="1" parent="1">
          <mxGeometry x="120" y="80" width="1160" height="480" as="geometry" />
        </mxCell>
        <mxCell id="HJIHwBdhUKe4kwMfqvgZ-32" value="" style="edgeStyle=orthogonalEdgeStyle;rounded=0;orthogonalLoop=1;jettySize=auto;html=1;" edge="1" parent="HJIHwBdhUKe4kwMfqvgZ-1" source="HJIHwBdhUKe4kwMfqvgZ-2" target="HJIHwBdhUKe4kwMfqvgZ-31">
          <mxGeometry relative="1" as="geometry" />
        </mxCell>
        <mxCell id="HJIHwBdhUKe4kwMfqvgZ-2" value="&lt;b&gt;Expense VPC&lt;/b&gt;" style="points=[[0,0],[0.25,0],[0.5,0],[0.75,0],[1,0],[1,0.25],[1,0.5],[1,0.75],[1,1],[0.75,1],[0.5,1],[0.25,1],[0,1],[0,0.75],[0,0.5],[0,0.25]];outlineConnect=0;gradientColor=none;html=1;whiteSpace=wrap;fontSize=12;fontStyle=0;container=1;pointerEvents=0;collapsible=0;recursiveResize=0;shape=mxgraph.aws4.group;grIcon=mxgraph.aws4.group_vpc2;strokeColor=#8C4FFF;fillColor=none;verticalAlign=top;align=left;spacingLeft=30;fontColor=#AAB7B8;dashed=0;" vertex="1" parent="HJIHwBdhUKe4kwMfqvgZ-1">
          <mxGeometry x="80" y="40" width="550" height="400" as="geometry" />
        </mxCell>
        <mxCell id="HJIHwBdhUKe4kwMfqvgZ-3" value="" style="rounded=1;arcSize=10;dashed=1;strokeColor=#F59D56;fillColor=none;gradientColor=none;dashPattern=8 4;strokeWidth=2;" vertex="1" parent="HJIHwBdhUKe4kwMfqvgZ-2">
          <mxGeometry x="50" y="40" width="450" height="160" as="geometry" />
        </mxCell>
        <mxCell id="HJIHwBdhUKe4kwMfqvgZ-4" value="" style="rounded=1;arcSize=10;dashed=1;strokeColor=#F59D56;fillColor=none;gradientColor=none;dashPattern=8 4;strokeWidth=2;" vertex="1" parent="HJIHwBdhUKe4kwMfqvgZ-2">
          <mxGeometry x="50" y="230" width="450" height="160" as="geometry" />
        </mxCell>
        <mxCell id="HJIHwBdhUKe4kwMfqvgZ-6" value="&lt;b&gt;Public subnet&lt;/b&gt;" style="points=[[0,0],[0.25,0],[0.5,0],[0.75,0],[1,0],[1,0.25],[1,0.5],[1,0.75],[1,1],[0.75,1],[0.5,1],[0.25,1],[0,1],[0,0.75],[0,0.5],[0,0.25]];outlineConnect=0;gradientColor=none;html=1;whiteSpace=wrap;fontSize=12;fontStyle=0;container=1;pointerEvents=0;collapsible=0;recursiveResize=0;shape=mxgraph.aws4.group;grIcon=mxgraph.aws4.group_security_group;grStroke=0;strokeColor=#7AA116;fillColor=#F2F6E8;verticalAlign=top;align=left;spacingLeft=30;fontColor=#248814;dashed=0;" vertex="1" parent="HJIHwBdhUKe4kwMfqvgZ-2">
          <mxGeometry x="80" y="80" width="110" height="280" as="geometry" />
        </mxCell>
        <mxCell id="HJIHwBdhUKe4kwMfqvgZ-9" value="" style="outlineConnect=0;dashed=0;verticalLabelPosition=bottom;verticalAlign=top;align=center;html=1;shape=mxgraph.aws3.route_table;fillColor=#F58536;gradientColor=none;" vertex="1" parent="HJIHwBdhUKe4kwMfqvgZ-6">
          <mxGeometry x="-20" y="-20" width="50" height="40" as="geometry" />
        </mxCell>
        <mxCell id="HJIHwBdhUKe4kwMfqvgZ-7" value="&lt;b&gt;Private subnet&lt;/b&gt;" style="points=[[0,0],[0.25,0],[0.5,0],[0.75,0],[1,0],[1,0.25],[1,0.5],[1,0.75],[1,1],[0.75,1],[0.5,1],[0.25,1],[0,1],[0,0.75],[0,0.5],[0,0.25]];outlineConnect=0;gradientColor=none;html=1;whiteSpace=wrap;fontSize=12;fontStyle=0;container=1;pointerEvents=0;collapsible=0;recursiveResize=0;shape=mxgraph.aws4.group;grIcon=mxgraph.aws4.group_security_group;grStroke=0;strokeColor=#00A4A6;fillColor=#E6F6F7;verticalAlign=top;align=left;spacingLeft=30;fontColor=#147EBA;dashed=0;" vertex="1" parent="HJIHwBdhUKe4kwMfqvgZ-2">
          <mxGeometry x="220" y="80" width="110" height="280" as="geometry" />
        </mxCell>
        <mxCell id="HJIHwBdhUKe4kwMfqvgZ-8" value="&lt;b&gt;Database&lt;/b&gt;&lt;div&gt;&lt;b&gt;subnet&lt;/b&gt;&lt;/div&gt;" style="points=[[0,0],[0.25,0],[0.5,0],[0.75,0],[1,0],[1,0.25],[1,0.5],[1,0.75],[1,1],[0.75,1],[0.5,1],[0.25,1],[0,1],[0,0.75],[0,0.5],[0,0.25]];outlineConnect=0;html=1;whiteSpace=wrap;fontSize=12;fontStyle=0;container=1;pointerEvents=0;collapsible=0;recursiveResize=0;shape=mxgraph.aws4.group;grIcon=mxgraph.aws4.group_security_group;grStroke=0;strokeColor=#b85450;fillColor=#f8cecc;verticalAlign=top;align=left;spacingLeft=30;dashed=0;" vertex="1" parent="HJIHwBdhUKe4kwMfqvgZ-2">
          <mxGeometry x="360" y="80" width="110" height="280" as="geometry" />
        </mxCell>
        <mxCell id="HJIHwBdhUKe4kwMfqvgZ-10" value="" style="outlineConnect=0;dashed=0;verticalLabelPosition=bottom;verticalAlign=top;align=center;html=1;shape=mxgraph.aws3.route_table;fillColor=#F58536;gradientColor=none;" vertex="1" parent="HJIHwBdhUKe4kwMfqvgZ-2">
          <mxGeometry x="190" y="60" width="50" height="40" as="geometry" />
        </mxCell>
        <mxCell id="HJIHwBdhUKe4kwMfqvgZ-11" value="" style="outlineConnect=0;dashed=0;verticalLabelPosition=bottom;verticalAlign=top;align=center;html=1;shape=mxgraph.aws3.route_table;fillColor=#F58536;gradientColor=none;" vertex="1" parent="HJIHwBdhUKe4kwMfqvgZ-2">
          <mxGeometry x="330" y="60" width="50" height="40" as="geometry" />
        </mxCell>
        <mxCell id="HJIHwBdhUKe4kwMfqvgZ-12" value="" style="outlineConnect=0;dashed=0;verticalLabelPosition=bottom;verticalAlign=top;align=center;html=1;shape=mxgraph.aws3.vpc_nat_gateway;fillColor=#F58536;gradientColor=none;" vertex="1" parent="HJIHwBdhUKe4kwMfqvgZ-2">
          <mxGeometry x="90" y="130" width="50" height="50" as="geometry" />
        </mxCell>
        <mxCell id="HJIHwBdhUKe4kwMfqvgZ-13" value="&lt;b&gt;us-east-1a&lt;/b&gt;" style="text;html=1;align=center;verticalAlign=middle;resizable=0;points=[];autosize=1;strokeColor=none;fillColor=none;" vertex="1" parent="HJIHwBdhUKe4kwMfqvgZ-2">
          <mxGeometry x="225" y="10" width="80" height="30" as="geometry" />
        </mxCell>
        <mxCell id="HJIHwBdhUKe4kwMfqvgZ-14" value="&lt;b&gt;us-east-1b&lt;/b&gt;" style="text;html=1;align=center;verticalAlign=middle;resizable=0;points=[];autosize=1;strokeColor=none;fillColor=none;" vertex="1" parent="HJIHwBdhUKe4kwMfqvgZ-2">
          <mxGeometry x="235" y="360" width="80" height="30" as="geometry" />
        </mxCell>
        <mxCell id="HJIHwBdhUKe4kwMfqvgZ-111" value="&lt;b&gt;NAT&lt;/b&gt;" style="text;html=1;align=center;verticalAlign=middle;resizable=0;points=[];autosize=1;strokeColor=none;fillColor=none;" vertex="1" parent="HJIHwBdhUKe4kwMfqvgZ-2">
          <mxGeometry x="90" y="180" width="50" height="30" as="geometry" />
        </mxCell>
        <mxCell id="HJIHwBdhUKe4kwMfqvgZ-5" value="" style="outlineConnect=0;dashed=0;verticalLabelPosition=bottom;verticalAlign=top;align=center;html=1;shape=mxgraph.aws3.internet_gateway;fillColor=#F58534;gradientColor=none;" vertex="1" parent="HJIHwBdhUKe4kwMfqvgZ-1">
          <mxGeometry x="40" y="220" width="69" height="72" as="geometry" />
        </mxCell>
        <mxCell id="HJIHwBdhUKe4kwMfqvgZ-33" style="edgeStyle=orthogonalEdgeStyle;rounded=0;orthogonalLoop=1;jettySize=auto;html=1;exitX=0;exitY=0.5;exitDx=0;exitDy=0;" edge="1" parent="HJIHwBdhUKe4kwMfqvgZ-1" source="HJIHwBdhUKe4kwMfqvgZ-30" target="HJIHwBdhUKe4kwMfqvgZ-31">
          <mxGeometry relative="1" as="geometry" />
        </mxCell>
        <mxCell id="HJIHwBdhUKe4kwMfqvgZ-30" value="&lt;b&gt;Default VPC&lt;/b&gt;" style="points=[[0,0],[0.25,0],[0.5,0],[0.75,0],[1,0],[1,0.25],[1,0.5],[1,0.75],[1,1],[0.75,1],[0.5,1],[0.25,1],[0,1],[0,0.75],[0,0.5],[0,0.25]];outlineConnect=0;gradientColor=none;html=1;whiteSpace=wrap;fontSize=12;fontStyle=0;container=1;pointerEvents=0;collapsible=0;recursiveResize=0;shape=mxgraph.aws4.group;grIcon=mxgraph.aws4.group_vpc2;strokeColor=#e51f3d;fillColor=none;verticalAlign=top;align=left;spacingLeft=30;fontColor=#AAB7B8;dashed=0;" vertex="1" parent="HJIHwBdhUKe4kwMfqvgZ-1">
          <mxGeometry x="730" y="40" width="390" height="400" as="geometry" />
        </mxCell>
        <mxCell id="HJIHwBdhUKe4kwMfqvgZ-34" value="&lt;b&gt;Default Subnets&lt;/b&gt;" style="points=[[0,0],[0.25,0],[0.5,0],[0.75,0],[1,0],[1,0.25],[1,0.5],[1,0.75],[1,1],[0.75,1],[0.5,1],[0.25,1],[0,1],[0,0.75],[0,0.5],[0,0.25]];outlineConnect=0;gradientColor=none;html=1;whiteSpace=wrap;fontSize=12;fontStyle=0;container=1;pointerEvents=0;collapsible=0;recursiveResize=0;shape=mxgraph.aws4.group;grIcon=mxgraph.aws4.group_security_group;grStroke=0;strokeColor=#7AA116;fillColor=#F2F6E8;verticalAlign=top;align=left;spacingLeft=30;fontColor=#248814;dashed=0;" vertex="1" parent="HJIHwBdhUKe4kwMfqvgZ-30">
          <mxGeometry x="80" y="60" width="110" height="280" as="geometry" />
        </mxCell>
        <mxCell id="HJIHwBdhUKe4kwMfqvgZ-35" value="" style="outlineConnect=0;dashed=0;verticalLabelPosition=bottom;verticalAlign=top;align=center;html=1;shape=mxgraph.aws3.route_table;fillColor=#F58536;gradientColor=none;" vertex="1" parent="HJIHwBdhUKe4kwMfqvgZ-34">
          <mxGeometry x="-20" y="-20" width="50" height="40" as="geometry" />
        </mxCell>
        <mxCell id="HJIHwBdhUKe4kwMfqvgZ-36" value="&lt;b&gt;Default Subnets&lt;/b&gt;" style="points=[[0,0],[0.25,0],[0.5,0],[0.75,0],[1,0],[1,0.25],[1,0.5],[1,0.75],[1,1],[0.75,1],[0.5,1],[0.25,1],[0,1],[0,0.75],[0,0.5],[0,0.25]];outlineConnect=0;html=1;whiteSpace=wrap;fontSize=12;fontStyle=0;container=1;pointerEvents=0;collapsible=0;recursiveResize=0;shape=mxgraph.aws4.group;grIcon=mxgraph.aws4.group_security_group;grStroke=0;strokeColor=#d6b656;fillColor=#fff2cc;verticalAlign=top;align=left;spacingLeft=30;dashed=0;" vertex="1" parent="HJIHwBdhUKe4kwMfqvgZ-30">
          <mxGeometry x="220" y="60" width="110" height="280" as="geometry" />
        </mxCell>
        <mxCell id="HJIHwBdhUKe4kwMfqvgZ-37" value="" style="outlineConnect=0;dashed=0;verticalLabelPosition=bottom;verticalAlign=top;align=center;html=1;shape=mxgraph.aws3.route_table;fillColor=#F58536;gradientColor=none;" vertex="1" parent="HJIHwBdhUKe4kwMfqvgZ-36">
          <mxGeometry x="-20" y="-20" width="50" height="40" as="geometry" />
        </mxCell>
        <mxCell id="HJIHwBdhUKe4kwMfqvgZ-79" value="&lt;b style=&quot;text-align: left; text-wrap: wrap;&quot;&gt;Peering Connection&lt;/b&gt;" style="text;html=1;align=center;verticalAlign=middle;resizable=0;points=[];autosize=1;strokeColor=none;fillColor=none;" vertex="1" parent="HJIHwBdhUKe4kwMfqvgZ-30">
          <mxGeometry x="-110" y="230" width="140" height="30" as="geometry" />
        </mxCell>
        <mxCell id="HJIHwBdhUKe4kwMfqvgZ-31" value="" style="outlineConnect=0;dashed=0;verticalLabelPosition=bottom;verticalAlign=top;align=center;html=1;shape=mxgraph.aws3.vpc_peering;fillColor=#F58536;gradientColor=none;" vertex="1" parent="HJIHwBdhUKe4kwMfqvgZ-1">
          <mxGeometry x="660" y="215" width="50" height="50" as="geometry" />
        </mxCell>
        <mxCell id="HJIHwBdhUKe4kwMfqvgZ-78" value="&lt;b&gt;IGW&lt;/b&gt;" style="text;html=1;align=center;verticalAlign=middle;resizable=0;points=[];autosize=1;strokeColor=none;fillColor=none;" vertex="1" parent="HJIHwBdhUKe4kwMfqvgZ-1">
          <mxGeometry x="30" y="292" width="50" height="30" as="geometry" />
        </mxCell>
        <mxCell id="HJIHwBdhUKe4kwMfqvgZ-15" value="" style="html=1;verticalLabelPosition=bottom;align=center;labelBackgroundColor=#ffffff;verticalAlign=top;strokeWidth=2;strokeColor=#0080F0;shadow=0;dashed=0;shape=mxgraph.ios7.icons.user;" vertex="1" parent="1">
          <mxGeometry x="-60" y="296" width="80" height="80" as="geometry" />
        </mxCell>
        <mxCell id="HJIHwBdhUKe4kwMfqvgZ-16" style="edgeStyle=orthogonalEdgeStyle;rounded=0;orthogonalLoop=1;jettySize=auto;html=1;entryX=0;entryY=0.5;entryDx=0;entryDy=0;entryPerimeter=0;" edge="1" parent="1" source="HJIHwBdhUKe4kwMfqvgZ-15" target="HJIHwBdhUKe4kwMfqvgZ-5">
          <mxGeometry relative="1" as="geometry" />
        </mxCell>
        <mxCell id="HJIHwBdhUKe4kwMfqvgZ-65" value="Public RT" style="shape=table;startSize=30;container=1;collapsible=1;childLayout=tableLayout;fixedRows=1;rowLines=0;fontStyle=1;align=center;resizeLast=1;html=1;whiteSpace=wrap;fillColor=#d5e8d4;strokeColor=#82b366;" vertex="1" parent="1">
          <mxGeometry x="200" y="-50" width="190" height="130" as="geometry">
            <mxRectangle x="350" y="-50" width="50" height="40" as="alternateBounds" />
          </mxGeometry>
        </mxCell>
        <mxCell id="HJIHwBdhUKe4kwMfqvgZ-66" value="" style="shape=tableRow;horizontal=0;startSize=0;swimlaneHead=0;swimlaneBody=0;fillColor=none;collapsible=0;dropTarget=0;points=[[0,0.5],[1,0.5]];portConstraint=eastwest;top=0;left=0;right=0;bottom=0;html=1;" vertex="1" parent="HJIHwBdhUKe4kwMfqvgZ-65">
          <mxGeometry y="30" width="190" height="30" as="geometry" />
        </mxCell>
        <mxCell id="HJIHwBdhUKe4kwMfqvgZ-67" value="0.0.0.0/0" style="shape=partialRectangle;connectable=0;fillColor=none;top=0;left=0;bottom=0;right=0;fontStyle=1;overflow=hidden;html=1;whiteSpace=wrap;" vertex="1" parent="HJIHwBdhUKe4kwMfqvgZ-66">
          <mxGeometry width="80" height="30" as="geometry">
            <mxRectangle width="80" height="30" as="alternateBounds" />
          </mxGeometry>
        </mxCell>
        <mxCell id="HJIHwBdhUKe4kwMfqvgZ-68" value="Internet Gateway&lt;span style=&quot;color: rgba(0, 0, 0, 0); font-family: monospace; font-size: 0px; text-wrap: nowrap;&quot;&gt;%3CmxGraphModel%3E%3Croot%3E%3CmxCell%20id%3D%220%22%2F%3E%3CmxCell%20id%3D%221%22%20parent%3D%220%22%2F%3E%3CmxCell%20id%3D%222%22%20value%3D%22%26lt%3Bb%26gt%3BDefault%20Subnets%26lt%3B%2Fb%26gt%3B%22%20style%3D%22points%3D%5B%5B0%2C0%5D%2C%5B0.25%2C0%5D%2C%5B0.5%2C0%5D%2C%5B0.75%2C0%5D%2C%5B1%2C0%5D%2C%5B1%2C0.25%5D%2C%5B1%2C0.5%5D%2C%5B1%2C0.75%5D%2C%5B1%2C1%5D%2C%5B0.75%2C1%5D%2C%5B0.5%2C1%5D%2C%5B0.25%2C1%5D%2C%5B0%2C1%5D%2C%5B0%2C0.75%5D%2C%5B0%2C0.5%5D%2C%5B0%2C0.25%5D%5D%3BoutlineConnect%3D0%3BgradientColor%3Dnone%3Bhtml%3D1%3BwhiteSpace%3Dwrap%3BfontSize%3D12%3BfontStyle%3D0%3Bcontainer%3D1%3BpointerEvents%3D0%3Bcollapsible%3D0%3BrecursiveResize%3D0%3Bshape%3Dmxgraph.aws4.group%3BgrIcon%3Dmxgraph.aws4.group_security_group%3BgrStroke%3D0%3BstrokeColor%3D%237AA116%3BfillColor%3D%23F2F6E8%3BverticalAlign%3Dtop%3Balign%3Dleft%3BspacingLeft%3D30%3BfontColor%3D%23248814%3Bdashed%3D0%3B%22%20vertex%3D%221%22%20parent%3D%221%22%3E%3CmxGeometry%20x%3D%22930%22%20y%3D%22180%22%20width%3D%22110%22%20height%3D%22280%22%20as%3D%22geometry%22%2F%3E%3C%2FmxCell%3E%3CmxCell%20id%3D%223%22%20value%3D%22%22%20style%3D%22outlineConnect%3D0%3Bdashed%3D0%3BverticalLabelPosition%3Dbottom%3BverticalAlign%3Dtop%3Balign%3Dcenter%3Bhtml%3D1%3Bshape%3Dmxgraph.aws3.route_table%3BfillColor%3D%23F58536%3BgradientColor%3Dnone%3B%22%20vertex%3D%221%22%20parent%3D%222%22%3E%3CmxGeometry%20x%3D%22-20%22%20y%3D%22-20%22%20width%3D%2250%22%20height%3D%2240%22%20as%3D%22geometry%22%2F%3E%3C%2FmxCell%3E%3C%2Froot%3E%3C%2FmxGraphModel%3E&lt;/span&gt;" style="shape=partialRectangle;connectable=0;fillColor=none;top=0;left=0;bottom=0;right=0;align=left;spacingLeft=6;fontStyle=5;overflow=hidden;html=1;whiteSpace=wrap;" vertex="1" parent="HJIHwBdhUKe4kwMfqvgZ-66">
          <mxGeometry x="80" width="110" height="30" as="geometry">
            <mxRectangle width="110" height="30" as="alternateBounds" />
          </mxGeometry>
        </mxCell>
        <mxCell id="HJIHwBdhUKe4kwMfqvgZ-69" value="" style="shape=tableRow;horizontal=0;startSize=0;swimlaneHead=0;swimlaneBody=0;fillColor=none;collapsible=0;dropTarget=0;points=[[0,0.5],[1,0.5]];portConstraint=eastwest;top=0;left=0;right=0;bottom=1;html=1;" vertex="1" parent="HJIHwBdhUKe4kwMfqvgZ-65">
          <mxGeometry y="60" width="190" height="20" as="geometry" />
        </mxCell>
        <mxCell id="HJIHwBdhUKe4kwMfqvgZ-70" value="" style="shape=partialRectangle;connectable=0;fillColor=none;top=0;left=0;bottom=0;right=0;fontStyle=1;overflow=hidden;html=1;whiteSpace=wrap;" vertex="1" parent="HJIHwBdhUKe4kwMfqvgZ-69">
          <mxGeometry width="80" height="20" as="geometry">
            <mxRectangle width="80" height="20" as="alternateBounds" />
          </mxGeometry>
        </mxCell>
        <mxCell id="HJIHwBdhUKe4kwMfqvgZ-71" value="" style="shape=partialRectangle;connectable=0;fillColor=none;top=0;left=0;bottom=0;right=0;align=left;spacingLeft=6;fontStyle=5;overflow=hidden;html=1;whiteSpace=wrap;" vertex="1" parent="HJIHwBdhUKe4kwMfqvgZ-69">
          <mxGeometry x="80" width="110" height="20" as="geometry">
            <mxRectangle width="110" height="20" as="alternateBounds" />
          </mxGeometry>
        </mxCell>
        <mxCell id="HJIHwBdhUKe4kwMfqvgZ-72" value="" style="shape=tableRow;horizontal=0;startSize=0;swimlaneHead=0;swimlaneBody=0;fillColor=none;collapsible=0;dropTarget=0;points=[[0,0.5],[1,0.5]];portConstraint=eastwest;top=0;left=0;right=0;bottom=0;html=1;" vertex="1" parent="HJIHwBdhUKe4kwMfqvgZ-65">
          <mxGeometry y="80" width="190" height="30" as="geometry" />
        </mxCell>
        <mxCell id="HJIHwBdhUKe4kwMfqvgZ-73" value="&lt;b&gt;172.31.0.0/16&lt;/b&gt;" style="shape=partialRectangle;connectable=0;fillColor=none;top=0;left=0;bottom=0;right=0;editable=1;overflow=hidden;html=1;whiteSpace=wrap;" vertex="1" parent="HJIHwBdhUKe4kwMfqvgZ-72">
          <mxGeometry width="80" height="30" as="geometry">
            <mxRectangle width="80" height="30" as="alternateBounds" />
          </mxGeometry>
        </mxCell>
        <mxCell id="HJIHwBdhUKe4kwMfqvgZ-74" value="&lt;b&gt;Peering Connection&lt;/b&gt;" style="shape=partialRectangle;connectable=0;fillColor=none;top=0;left=0;bottom=0;right=0;align=left;spacingLeft=6;overflow=hidden;html=1;whiteSpace=wrap;" vertex="1" parent="HJIHwBdhUKe4kwMfqvgZ-72">
          <mxGeometry x="80" width="110" height="30" as="geometry">
            <mxRectangle width="110" height="30" as="alternateBounds" />
          </mxGeometry>
        </mxCell>
        <mxCell id="HJIHwBdhUKe4kwMfqvgZ-75" value="" style="shape=tableRow;horizontal=0;startSize=0;swimlaneHead=0;swimlaneBody=0;fillColor=none;collapsible=0;dropTarget=0;points=[[0,0.5],[1,0.5]];portConstraint=eastwest;top=0;left=0;right=0;bottom=0;html=1;" vertex="1" parent="HJIHwBdhUKe4kwMfqvgZ-65">
          <mxGeometry y="110" width="190" height="20" as="geometry" />
        </mxCell>
        <mxCell id="HJIHwBdhUKe4kwMfqvgZ-76" value="&lt;b&gt;10.0.0.0/16&lt;/b&gt;" style="shape=partialRectangle;connectable=0;fillColor=none;top=0;left=0;bottom=0;right=0;editable=1;overflow=hidden;html=1;whiteSpace=wrap;" vertex="1" parent="HJIHwBdhUKe4kwMfqvgZ-75">
          <mxGeometry width="80" height="20" as="geometry">
            <mxRectangle width="80" height="20" as="alternateBounds" />
          </mxGeometry>
        </mxCell>
        <mxCell id="HJIHwBdhUKe4kwMfqvgZ-77" value="&lt;b&gt;local&lt;/b&gt;" style="shape=partialRectangle;connectable=0;fillColor=none;top=0;left=0;bottom=0;right=0;align=left;spacingLeft=6;overflow=hidden;html=1;whiteSpace=wrap;" vertex="1" parent="HJIHwBdhUKe4kwMfqvgZ-75">
          <mxGeometry x="80" width="110" height="20" as="geometry">
            <mxRectangle width="110" height="20" as="alternateBounds" />
          </mxGeometry>
        </mxCell>
        <mxCell id="HJIHwBdhUKe4kwMfqvgZ-41" style="edgeStyle=orthogonalEdgeStyle;rounded=0;orthogonalLoop=1;jettySize=auto;html=1;curved=1;entryX=0;entryY=0.5;entryDx=0;entryDy=0;" edge="1" parent="1" source="HJIHwBdhUKe4kwMfqvgZ-9" target="HJIHwBdhUKe4kwMfqvgZ-69">
          <mxGeometry relative="1" as="geometry">
            <mxPoint x="340" y="40" as="targetPoint" />
          </mxGeometry>
        </mxCell>
        <mxCell id="HJIHwBdhUKe4kwMfqvgZ-80" value="Private RT" style="shape=table;startSize=30;container=1;collapsible=1;childLayout=tableLayout;fixedRows=1;rowLines=0;fontStyle=1;align=center;resizeLast=1;html=1;whiteSpace=wrap;fillColor=#dae8fc;strokeColor=#6c8ebf;" vertex="1" parent="1">
          <mxGeometry x="410" y="-50" width="190" height="130" as="geometry">
            <mxRectangle x="350" y="-50" width="50" height="40" as="alternateBounds" />
          </mxGeometry>
        </mxCell>
        <mxCell id="HJIHwBdhUKe4kwMfqvgZ-81" value="" style="shape=tableRow;horizontal=0;startSize=0;swimlaneHead=0;swimlaneBody=0;fillColor=none;collapsible=0;dropTarget=0;points=[[0,0.5],[1,0.5]];portConstraint=eastwest;top=0;left=0;right=0;bottom=0;html=1;" vertex="1" parent="HJIHwBdhUKe4kwMfqvgZ-80">
          <mxGeometry y="30" width="190" height="30" as="geometry" />
        </mxCell>
        <mxCell id="HJIHwBdhUKe4kwMfqvgZ-82" value="0.0.0.0/0" style="shape=partialRectangle;connectable=0;fillColor=none;top=0;left=0;bottom=0;right=0;fontStyle=1;overflow=hidden;html=1;whiteSpace=wrap;" vertex="1" parent="HJIHwBdhUKe4kwMfqvgZ-81">
          <mxGeometry width="80" height="30" as="geometry">
            <mxRectangle width="80" height="30" as="alternateBounds" />
          </mxGeometry>
        </mxCell>
        <mxCell id="HJIHwBdhUKe4kwMfqvgZ-83" value="NAT" style="shape=partialRectangle;connectable=0;fillColor=none;top=0;left=0;bottom=0;right=0;align=left;spacingLeft=6;fontStyle=5;overflow=hidden;html=1;whiteSpace=wrap;" vertex="1" parent="HJIHwBdhUKe4kwMfqvgZ-81">
          <mxGeometry x="80" width="110" height="30" as="geometry">
            <mxRectangle width="110" height="30" as="alternateBounds" />
          </mxGeometry>
        </mxCell>
        <mxCell id="HJIHwBdhUKe4kwMfqvgZ-84" value="" style="shape=tableRow;horizontal=0;startSize=0;swimlaneHead=0;swimlaneBody=0;fillColor=none;collapsible=0;dropTarget=0;points=[[0,0.5],[1,0.5]];portConstraint=eastwest;top=0;left=0;right=0;bottom=1;html=1;" vertex="1" parent="HJIHwBdhUKe4kwMfqvgZ-80">
          <mxGeometry y="60" width="190" height="20" as="geometry" />
        </mxCell>
        <mxCell id="HJIHwBdhUKe4kwMfqvgZ-85" value="" style="shape=partialRectangle;connectable=0;fillColor=none;top=0;left=0;bottom=0;right=0;fontStyle=1;overflow=hidden;html=1;whiteSpace=wrap;" vertex="1" parent="HJIHwBdhUKe4kwMfqvgZ-84">
          <mxGeometry width="80" height="20" as="geometry">
            <mxRectangle width="80" height="20" as="alternateBounds" />
          </mxGeometry>
        </mxCell>
        <mxCell id="HJIHwBdhUKe4kwMfqvgZ-86" value="" style="shape=partialRectangle;connectable=0;fillColor=none;top=0;left=0;bottom=0;right=0;align=left;spacingLeft=6;fontStyle=5;overflow=hidden;html=1;whiteSpace=wrap;" vertex="1" parent="HJIHwBdhUKe4kwMfqvgZ-84">
          <mxGeometry x="80" width="110" height="20" as="geometry">
            <mxRectangle width="110" height="20" as="alternateBounds" />
          </mxGeometry>
        </mxCell>
        <mxCell id="HJIHwBdhUKe4kwMfqvgZ-87" value="" style="shape=tableRow;horizontal=0;startSize=0;swimlaneHead=0;swimlaneBody=0;fillColor=none;collapsible=0;dropTarget=0;points=[[0,0.5],[1,0.5]];portConstraint=eastwest;top=0;left=0;right=0;bottom=0;html=1;" vertex="1" parent="HJIHwBdhUKe4kwMfqvgZ-80">
          <mxGeometry y="80" width="190" height="30" as="geometry" />
        </mxCell>
        <mxCell id="HJIHwBdhUKe4kwMfqvgZ-88" value="&lt;b&gt;172.31.0.0/16&lt;/b&gt;" style="shape=partialRectangle;connectable=0;fillColor=none;top=0;left=0;bottom=0;right=0;editable=1;overflow=hidden;html=1;whiteSpace=wrap;" vertex="1" parent="HJIHwBdhUKe4kwMfqvgZ-87">
          <mxGeometry width="80" height="30" as="geometry">
            <mxRectangle width="80" height="30" as="alternateBounds" />
          </mxGeometry>
        </mxCell>
        <mxCell id="HJIHwBdhUKe4kwMfqvgZ-89" value="&lt;b&gt;Peering Connection&lt;/b&gt;" style="shape=partialRectangle;connectable=0;fillColor=none;top=0;left=0;bottom=0;right=0;align=left;spacingLeft=6;overflow=hidden;html=1;whiteSpace=wrap;" vertex="1" parent="HJIHwBdhUKe4kwMfqvgZ-87">
          <mxGeometry x="80" width="110" height="30" as="geometry">
            <mxRectangle width="110" height="30" as="alternateBounds" />
          </mxGeometry>
        </mxCell>
        <mxCell id="HJIHwBdhUKe4kwMfqvgZ-90" value="" style="shape=tableRow;horizontal=0;startSize=0;swimlaneHead=0;swimlaneBody=0;fillColor=none;collapsible=0;dropTarget=0;points=[[0,0.5],[1,0.5]];portConstraint=eastwest;top=0;left=0;right=0;bottom=0;html=1;" vertex="1" parent="HJIHwBdhUKe4kwMfqvgZ-80">
          <mxGeometry y="110" width="190" height="20" as="geometry" />
        </mxCell>
        <mxCell id="HJIHwBdhUKe4kwMfqvgZ-91" value="&lt;b&gt;10.0.0.0/16&lt;/b&gt;" style="shape=partialRectangle;connectable=0;fillColor=none;top=0;left=0;bottom=0;right=0;editable=1;overflow=hidden;html=1;whiteSpace=wrap;" vertex="1" parent="HJIHwBdhUKe4kwMfqvgZ-90">
          <mxGeometry width="80" height="20" as="geometry">
            <mxRectangle width="80" height="20" as="alternateBounds" />
          </mxGeometry>
        </mxCell>
        <mxCell id="HJIHwBdhUKe4kwMfqvgZ-92" value="&lt;b&gt;local&lt;/b&gt;" style="shape=partialRectangle;connectable=0;fillColor=none;top=0;left=0;bottom=0;right=0;align=left;spacingLeft=6;overflow=hidden;html=1;whiteSpace=wrap;" vertex="1" parent="HJIHwBdhUKe4kwMfqvgZ-90">
          <mxGeometry x="80" width="110" height="20" as="geometry">
            <mxRectangle width="110" height="20" as="alternateBounds" />
          </mxGeometry>
        </mxCell>
        <mxCell id="HJIHwBdhUKe4kwMfqvgZ-94" style="edgeStyle=orthogonalEdgeStyle;rounded=0;orthogonalLoop=1;jettySize=auto;html=1;curved=1;entryX=-0.008;entryY=-0.08;entryDx=0;entryDy=0;entryPerimeter=0;" edge="1" parent="1" source="HJIHwBdhUKe4kwMfqvgZ-10" target="HJIHwBdhUKe4kwMfqvgZ-87">
          <mxGeometry relative="1" as="geometry">
            <mxPoint x="430" y="30" as="targetPoint" />
          </mxGeometry>
        </mxCell>
        <mxCell id="HJIHwBdhUKe4kwMfqvgZ-96" value="Database RT" style="shape=table;startSize=30;container=1;collapsible=1;childLayout=tableLayout;fixedRows=1;rowLines=0;fontStyle=1;align=center;resizeLast=1;html=1;whiteSpace=wrap;fillColor=#f8cecc;strokeColor=#b85450;" vertex="1" parent="1">
          <mxGeometry x="650" y="-50" width="190" height="130" as="geometry">
            <mxRectangle x="350" y="-50" width="50" height="40" as="alternateBounds" />
          </mxGeometry>
        </mxCell>
        <mxCell id="HJIHwBdhUKe4kwMfqvgZ-97" value="" style="shape=tableRow;horizontal=0;startSize=0;swimlaneHead=0;swimlaneBody=0;fillColor=none;collapsible=0;dropTarget=0;points=[[0,0.5],[1,0.5]];portConstraint=eastwest;top=0;left=0;right=0;bottom=0;html=1;" vertex="1" parent="HJIHwBdhUKe4kwMfqvgZ-96">
          <mxGeometry y="30" width="190" height="30" as="geometry" />
        </mxCell>
        <mxCell id="HJIHwBdhUKe4kwMfqvgZ-98" value="0.0.0.0/0" style="shape=partialRectangle;connectable=0;fillColor=none;top=0;left=0;bottom=0;right=0;fontStyle=1;overflow=hidden;html=1;whiteSpace=wrap;" vertex="1" parent="HJIHwBdhUKe4kwMfqvgZ-97">
          <mxGeometry width="80" height="30" as="geometry">
            <mxRectangle width="80" height="30" as="alternateBounds" />
          </mxGeometry>
        </mxCell>
        <mxCell id="HJIHwBdhUKe4kwMfqvgZ-99" value="NAT" style="shape=partialRectangle;connectable=0;fillColor=none;top=0;left=0;bottom=0;right=0;align=left;spacingLeft=6;fontStyle=5;overflow=hidden;html=1;whiteSpace=wrap;" vertex="1" parent="HJIHwBdhUKe4kwMfqvgZ-97">
          <mxGeometry x="80" width="110" height="30" as="geometry">
            <mxRectangle width="110" height="30" as="alternateBounds" />
          </mxGeometry>
        </mxCell>
        <mxCell id="HJIHwBdhUKe4kwMfqvgZ-100" value="" style="shape=tableRow;horizontal=0;startSize=0;swimlaneHead=0;swimlaneBody=0;fillColor=none;collapsible=0;dropTarget=0;points=[[0,0.5],[1,0.5]];portConstraint=eastwest;top=0;left=0;right=0;bottom=1;html=1;" vertex="1" parent="HJIHwBdhUKe4kwMfqvgZ-96">
          <mxGeometry y="60" width="190" height="20" as="geometry" />
        </mxCell>
        <mxCell id="HJIHwBdhUKe4kwMfqvgZ-101" value="" style="shape=partialRectangle;connectable=0;fillColor=none;top=0;left=0;bottom=0;right=0;fontStyle=1;overflow=hidden;html=1;whiteSpace=wrap;" vertex="1" parent="HJIHwBdhUKe4kwMfqvgZ-100">
          <mxGeometry width="80" height="20" as="geometry">
            <mxRectangle width="80" height="20" as="alternateBounds" />
          </mxGeometry>
        </mxCell>
        <mxCell id="HJIHwBdhUKe4kwMfqvgZ-102" value="" style="shape=partialRectangle;connectable=0;fillColor=none;top=0;left=0;bottom=0;right=0;align=left;spacingLeft=6;fontStyle=5;overflow=hidden;html=1;whiteSpace=wrap;" vertex="1" parent="HJIHwBdhUKe4kwMfqvgZ-100">
          <mxGeometry x="80" width="110" height="20" as="geometry">
            <mxRectangle width="110" height="20" as="alternateBounds" />
          </mxGeometry>
        </mxCell>
        <mxCell id="HJIHwBdhUKe4kwMfqvgZ-103" value="" style="shape=tableRow;horizontal=0;startSize=0;swimlaneHead=0;swimlaneBody=0;fillColor=none;collapsible=0;dropTarget=0;points=[[0,0.5],[1,0.5]];portConstraint=eastwest;top=0;left=0;right=0;bottom=0;html=1;" vertex="1" parent="HJIHwBdhUKe4kwMfqvgZ-96">
          <mxGeometry y="80" width="190" height="30" as="geometry" />
        </mxCell>
        <mxCell id="HJIHwBdhUKe4kwMfqvgZ-104" value="&lt;b&gt;172.31.0.0/16&lt;/b&gt;" style="shape=partialRectangle;connectable=0;fillColor=none;top=0;left=0;bottom=0;right=0;editable=1;overflow=hidden;html=1;whiteSpace=wrap;" vertex="1" parent="HJIHwBdhUKe4kwMfqvgZ-103">
          <mxGeometry width="80" height="30" as="geometry">
            <mxRectangle width="80" height="30" as="alternateBounds" />
          </mxGeometry>
        </mxCell>
        <mxCell id="HJIHwBdhUKe4kwMfqvgZ-105" value="&lt;b&gt;Peering Connection&lt;/b&gt;" style="shape=partialRectangle;connectable=0;fillColor=none;top=0;left=0;bottom=0;right=0;align=left;spacingLeft=6;overflow=hidden;html=1;whiteSpace=wrap;" vertex="1" parent="HJIHwBdhUKe4kwMfqvgZ-103">
          <mxGeometry x="80" width="110" height="30" as="geometry">
            <mxRectangle width="110" height="30" as="alternateBounds" />
          </mxGeometry>
        </mxCell>
        <mxCell id="HJIHwBdhUKe4kwMfqvgZ-106" value="" style="shape=tableRow;horizontal=0;startSize=0;swimlaneHead=0;swimlaneBody=0;fillColor=none;collapsible=0;dropTarget=0;points=[[0,0.5],[1,0.5]];portConstraint=eastwest;top=0;left=0;right=0;bottom=0;html=1;" vertex="1" parent="HJIHwBdhUKe4kwMfqvgZ-96">
          <mxGeometry y="110" width="190" height="20" as="geometry" />
        </mxCell>
        <mxCell id="HJIHwBdhUKe4kwMfqvgZ-107" value="&lt;b&gt;10.0.0.0/16&lt;/b&gt;" style="shape=partialRectangle;connectable=0;fillColor=none;top=0;left=0;bottom=0;right=0;editable=1;overflow=hidden;html=1;whiteSpace=wrap;" vertex="1" parent="HJIHwBdhUKe4kwMfqvgZ-106">
          <mxGeometry width="80" height="20" as="geometry">
            <mxRectangle width="80" height="20" as="alternateBounds" />
          </mxGeometry>
        </mxCell>
        <mxCell id="HJIHwBdhUKe4kwMfqvgZ-108" value="&lt;b&gt;local&lt;/b&gt;" style="shape=partialRectangle;connectable=0;fillColor=none;top=0;left=0;bottom=0;right=0;align=left;spacingLeft=6;overflow=hidden;html=1;whiteSpace=wrap;" vertex="1" parent="HJIHwBdhUKe4kwMfqvgZ-106">
          <mxGeometry x="80" width="110" height="20" as="geometry">
            <mxRectangle width="110" height="20" as="alternateBounds" />
          </mxGeometry>
        </mxCell>
        <mxCell id="HJIHwBdhUKe4kwMfqvgZ-110" style="edgeStyle=orthogonalEdgeStyle;rounded=0;orthogonalLoop=1;jettySize=auto;html=1;entryX=-0.015;entryY=0.133;entryDx=0;entryDy=0;entryPerimeter=0;curved=1;fillColor=#ffe6cc;strokeColor=#000000;" edge="1" parent="1" source="HJIHwBdhUKe4kwMfqvgZ-11" target="HJIHwBdhUKe4kwMfqvgZ-103">
          <mxGeometry relative="1" as="geometry">
            <Array as="points">
              <mxPoint x="610" y="200" />
              <mxPoint x="610" y="34" />
            </Array>
          </mxGeometry>
        </mxCell>
        <mxCell id="HJIHwBdhUKe4kwMfqvgZ-112" value="Main RT" style="shape=table;startSize=30;container=1;collapsible=1;childLayout=tableLayout;fixedRows=1;rowLines=0;fontStyle=1;align=center;resizeLast=1;html=1;whiteSpace=wrap;fillColor=#e1d5e7;strokeColor=#9673a6;" vertex="1" parent="1">
          <mxGeometry x="950" y="-50" width="210" height="130" as="geometry">
            <mxRectangle x="350" y="-50" width="50" height="40" as="alternateBounds" />
          </mxGeometry>
        </mxCell>
        <mxCell id="HJIHwBdhUKe4kwMfqvgZ-113" value="" style="shape=tableRow;horizontal=0;startSize=0;swimlaneHead=0;swimlaneBody=0;fillColor=none;collapsible=0;dropTarget=0;points=[[0,0.5],[1,0.5]];portConstraint=eastwest;top=0;left=0;right=0;bottom=0;html=1;" vertex="1" parent="HJIHwBdhUKe4kwMfqvgZ-112">
          <mxGeometry y="30" width="210" height="30" as="geometry" />
        </mxCell>
        <mxCell id="HJIHwBdhUKe4kwMfqvgZ-114" value="0.0.0.0/0" style="shape=partialRectangle;connectable=0;fillColor=none;top=0;left=0;bottom=0;right=0;fontStyle=1;overflow=hidden;html=1;whiteSpace=wrap;" vertex="1" parent="HJIHwBdhUKe4kwMfqvgZ-113">
          <mxGeometry width="80" height="30" as="geometry">
            <mxRectangle width="80" height="30" as="alternateBounds" />
          </mxGeometry>
        </mxCell>
        <mxCell id="HJIHwBdhUKe4kwMfqvgZ-115" value="Default VPC IGW" style="shape=partialRectangle;connectable=0;fillColor=none;top=0;left=0;bottom=0;right=0;align=left;spacingLeft=6;fontStyle=5;overflow=hidden;html=1;whiteSpace=wrap;" vertex="1" parent="HJIHwBdhUKe4kwMfqvgZ-113">
          <mxGeometry x="80" width="130" height="30" as="geometry">
            <mxRectangle width="130" height="30" as="alternateBounds" />
          </mxGeometry>
        </mxCell>
        <mxCell id="HJIHwBdhUKe4kwMfqvgZ-116" value="" style="shape=tableRow;horizontal=0;startSize=0;swimlaneHead=0;swimlaneBody=0;fillColor=none;collapsible=0;dropTarget=0;points=[[0,0.5],[1,0.5]];portConstraint=eastwest;top=0;left=0;right=0;bottom=1;html=1;" vertex="1" parent="HJIHwBdhUKe4kwMfqvgZ-112">
          <mxGeometry y="60" width="210" height="20" as="geometry" />
        </mxCell>
        <mxCell id="HJIHwBdhUKe4kwMfqvgZ-117" value="" style="shape=partialRectangle;connectable=0;fillColor=none;top=0;left=0;bottom=0;right=0;fontStyle=1;overflow=hidden;html=1;whiteSpace=wrap;" vertex="1" parent="HJIHwBdhUKe4kwMfqvgZ-116">
          <mxGeometry width="80" height="20" as="geometry">
            <mxRectangle width="80" height="20" as="alternateBounds" />
          </mxGeometry>
        </mxCell>
        <mxCell id="HJIHwBdhUKe4kwMfqvgZ-118" value="" style="shape=partialRectangle;connectable=0;fillColor=none;top=0;left=0;bottom=0;right=0;align=left;spacingLeft=6;fontStyle=5;overflow=hidden;html=1;whiteSpace=wrap;" vertex="1" parent="HJIHwBdhUKe4kwMfqvgZ-116">
          <mxGeometry x="80" width="130" height="20" as="geometry">
            <mxRectangle width="130" height="20" as="alternateBounds" />
          </mxGeometry>
        </mxCell>
        <mxCell id="HJIHwBdhUKe4kwMfqvgZ-119" value="" style="shape=tableRow;horizontal=0;startSize=0;swimlaneHead=0;swimlaneBody=0;fillColor=none;collapsible=0;dropTarget=0;points=[[0,0.5],[1,0.5]];portConstraint=eastwest;top=0;left=0;right=0;bottom=0;html=1;" vertex="1" parent="HJIHwBdhUKe4kwMfqvgZ-112">
          <mxGeometry y="80" width="210" height="30" as="geometry" />
        </mxCell>
        <mxCell id="HJIHwBdhUKe4kwMfqvgZ-120" value="&lt;b&gt;172.31.0.0/16&lt;/b&gt;" style="shape=partialRectangle;connectable=0;fillColor=none;top=0;left=0;bottom=0;right=0;editable=1;overflow=hidden;html=1;whiteSpace=wrap;" vertex="1" parent="HJIHwBdhUKe4kwMfqvgZ-119">
          <mxGeometry width="80" height="30" as="geometry">
            <mxRectangle width="80" height="30" as="alternateBounds" />
          </mxGeometry>
        </mxCell>
        <mxCell id="HJIHwBdhUKe4kwMfqvgZ-121" value="&lt;b&gt;local&lt;/b&gt;" style="shape=partialRectangle;connectable=0;fillColor=none;top=0;left=0;bottom=0;right=0;align=left;spacingLeft=6;overflow=hidden;html=1;whiteSpace=wrap;" vertex="1" parent="HJIHwBdhUKe4kwMfqvgZ-119">
          <mxGeometry x="80" width="130" height="30" as="geometry">
            <mxRectangle width="130" height="30" as="alternateBounds" />
          </mxGeometry>
        </mxCell>
        <mxCell id="HJIHwBdhUKe4kwMfqvgZ-122" value="" style="shape=tableRow;horizontal=0;startSize=0;swimlaneHead=0;swimlaneBody=0;fillColor=none;collapsible=0;dropTarget=0;points=[[0,0.5],[1,0.5]];portConstraint=eastwest;top=0;left=0;right=0;bottom=0;html=1;" vertex="1" parent="HJIHwBdhUKe4kwMfqvgZ-112">
          <mxGeometry y="110" width="210" height="20" as="geometry" />
        </mxCell>
        <mxCell id="HJIHwBdhUKe4kwMfqvgZ-123" value="&lt;b&gt;10.0.0.0/16&lt;/b&gt;" style="shape=partialRectangle;connectable=0;fillColor=none;top=0;left=0;bottom=0;right=0;editable=1;overflow=hidden;html=1;whiteSpace=wrap;" vertex="1" parent="HJIHwBdhUKe4kwMfqvgZ-122">
          <mxGeometry width="80" height="20" as="geometry">
            <mxRectangle width="80" height="20" as="alternateBounds" />
          </mxGeometry>
        </mxCell>
        <mxCell id="HJIHwBdhUKe4kwMfqvgZ-124" value="&lt;b&gt;peering connection&lt;/b&gt;" style="shape=partialRectangle;connectable=0;fillColor=none;top=0;left=0;bottom=0;right=0;align=left;spacingLeft=6;overflow=hidden;html=1;whiteSpace=wrap;" vertex="1" parent="HJIHwBdhUKe4kwMfqvgZ-122">
          <mxGeometry x="80" width="130" height="20" as="geometry">
            <mxRectangle width="130" height="20" as="alternateBounds" />
          </mxGeometry>
        </mxCell>
        <mxCell id="HJIHwBdhUKe4kwMfqvgZ-125" style="edgeStyle=orthogonalEdgeStyle;rounded=0;orthogonalLoop=1;jettySize=auto;html=1;entryX=0;entryY=0.5;entryDx=0;entryDy=0;curved=1;" edge="1" parent="1" source="HJIHwBdhUKe4kwMfqvgZ-35" target="HJIHwBdhUKe4kwMfqvgZ-113">
          <mxGeometry relative="1" as="geometry" />
        </mxCell>
        <mxCell id="HJIHwBdhUKe4kwMfqvgZ-126" style="edgeStyle=orthogonalEdgeStyle;rounded=0;orthogonalLoop=1;jettySize=auto;html=1;entryX=1;entryY=0.5;entryDx=0;entryDy=0;curved=1;" edge="1" parent="1" source="HJIHwBdhUKe4kwMfqvgZ-37" target="HJIHwBdhUKe4kwMfqvgZ-116">
          <mxGeometry relative="1" as="geometry" />
        </mxCell>
      </root>
    </mxGraphModel>
  </diagram>
</mxfile>
